<svg width="261" height="129" viewBox="0 0 161 29" fill="none" xmlns="http://www.w3.org/2000/svg">
<line x1="19" y1="28" x2="63" y2="28" stroke="#D8380E" stroke-width="2"/>
<path d="M7.775 25.25C6.425 25.25 5.11667 25.0583 3.85 24.675C2.6 24.2917 1.60833 23.7833 0.875 23.15L2 20.625C2.71667 21.1917 3.59167 21.6583 4.625 22.025C5.675 22.375 6.725 22.55 7.775 22.55C9.075 22.55 10.0417 22.3417 10.675 21.925C11.325 21.5083 11.65 20.9583 11.65 20.275C11.65 19.775 11.4667 19.3667 11.1 19.05C10.75 18.7167 10.3 18.4583 9.75 18.275C9.2 18.0917 8.45 17.8833 7.5 17.65C6.16667 17.3333 5.08333 17.0167 4.25 16.7C3.43333 16.3833 2.725 15.8917 2.125 15.225C1.54167 14.5417 1.25 13.625 1.25 12.475C1.25 11.5083 1.50833 10.6333 2.025 9.85C2.55833 9.05 3.35 8.41667 4.4 7.95C5.46667 7.48333 6.76667 7.25 8.3 7.25C9.36667 7.25 10.4167 7.38333 11.45 7.65C12.4833 7.91667 13.375 8.3 14.125 8.8L13.1 11.325C12.3333 10.875 11.5333 10.5333 10.7 10.3C9.86667 10.0667 9.05833 9.95 8.275 9.95C6.99167 9.95 6.03333 10.1667 5.4 10.6C4.78333 11.0333 4.475 11.6083 4.475 12.325C4.475 12.825 4.65 13.2333 5 13.55C5.36667 13.8667 5.825 14.1167 6.375 14.3C6.925 14.4833 7.675 14.6917 8.625 14.925C9.925 15.225 10.9917 15.5417 11.825 15.875C12.6583 16.1917 13.3667 16.6833 13.95 17.35C14.55 18.0167 14.85 18.9167 14.85 20.05C14.85 21.0167 14.5833 21.8917 14.05 22.675C13.5333 23.4583 12.7417 24.0833 11.675 24.55C10.6083 25.0167 9.30833 25.25 7.775 25.25ZM43.241 20.95H34.491L32.766 25H29.416L37.291 7.5H40.491L48.391 25H44.991L43.241 20.95ZM42.166 18.4L38.866 10.75L35.591 18.4H42.166ZM71.6074 17.675L68.8324 20.525V25H65.5824V7.5H68.8324V16.475L77.4824 7.5H81.1324L73.7824 15.325L81.5824 25H77.7824L71.6074 17.675ZM94.3885 20.95H85.6385L83.9135 25H80.5635L88.4385 7.5H91.6385L99.5385 25H96.1385L94.3885 20.95ZM93.3135 18.4L90.0135 10.75L86.7385 18.4H93.3135Z" fill="#990F04"/>
<path d="M50.6166 7.5H53.8666V22.25H63.0166V25H50.6166V7.5Z" fill="#D8380E"/>
<path d="M22.5306 24L16 9.9661H18.0408L23.1429 21.8438L33.9592 1H36L24.1633 24H22.5306Z" stroke="#990F04" stroke-width="2"/>
</svg>